<?xml version="1.0" standalone="no"?><!DOCTYPE svg PUBLIC "-//W3C//DTD SVG 1.1//EN" "http://www.w3.org/Graphics/SVG/1.1/DTD/svg11.dtd"><svg t="1532595618625" class="icon" style="" viewBox="0 0 1024 1024" version="1.1" xmlns="http://www.w3.org/2000/svg" p-id="8743" xmlns:xlink="http://www.w3.org/1999/xlink" width="18" height="18"><defs><style type="text/css"></style></defs><path d="M873.984 1013.76h-723.456c-36.864 0-66.56-29.696-66.56-66.56V146.432c0-36.864 29.696-66.56 66.56-66.56h34.304c8.704 0 15.36 6.656 15.36 15.36s-6.656 15.36-15.36 15.36h-34.304c-19.968 0-35.84 15.872-35.84 35.84v800.768c0 19.968 15.872 35.84 35.84 35.84h723.456c19.968 0 35.84-15.872 35.84-35.84V146.432c0-19.968-15.872-35.84-35.84-35.84h-43.008c-8.704 0-15.36-6.656-15.36-15.36s6.656-15.36 15.36-15.36h43.008c36.864 0 66.56 29.696 66.56 66.56v800.768c0 36.864-30.208 66.56-66.56 66.56z" p-id="8744"></path><path d="M693.76 180.224h-363.52c-36.864 0-66.56-29.696-66.56-66.56v-36.864c0-36.864 29.696-66.56 66.56-66.56h363.52c36.864 0 66.56 29.696 66.56 66.56v36.864c0 36.864-29.696 66.56-66.56 66.56z m-363.52-139.264c-19.968 0-35.84 15.872-35.84 35.84v36.864c0 19.968 15.872 35.84 35.84 35.84h363.52c19.968 0 35.84-15.872 35.84-35.84v-36.864c0-19.968-15.872-35.84-35.84-35.84h-363.52zM759.296 350.72h-494.592c-8.704 0-15.36-6.656-15.36-15.36s6.656-15.36 15.36-15.36h494.592c8.704 0 15.36 6.656 15.36 15.36s-6.656 15.36-15.36 15.36zM759.296 598.528h-494.592c-8.704 0-15.36-6.656-15.36-15.36s6.656-15.36 15.36-15.36h494.592c8.704 0 15.36 6.656 15.36 15.36s-6.656 15.36-15.36 15.36zM612.864 845.824h-333.824c-8.704 0-15.36-6.656-15.36-15.36s6.656-15.36 15.36-15.36h333.824c8.704 0 15.36 6.656 15.36 15.36s-6.656 15.36-15.36 15.36z" p-id="8745"></path></svg>